<svg width="720" height="960" viewBox="0 0 720 960" fill="none" xmlns="http://www.w3.org/2000/svg">
  <rect width="720" height="960" rx="48" fill="#ECFDF5"/>
  <rect x="40" y="40" width="640" height="880" rx="34" fill="#F8FFFB"/>
  <path d="M96 180H624" stroke="#99F6E4" stroke-width="2"/>
  <path d="M96 300H624" stroke="#99F6E4" stroke-width="2"/>
  <path d="M96 420H624" stroke="#99F6E4" stroke-width="2"/>
  <path d="M96 540H624" stroke="#99F6E4" stroke-width="2"/>
  <path d="M160 112V680" stroke="#CCFBF1" stroke-width="2"/>
  <path d="M280 112V680" stroke="#CCFBF1" stroke-width="2"/>
  <path d="M400 112V680" stroke="#CCFBF1" stroke-width="2"/>
  <path d="M520 112V680" stroke="#CCFBF1" stroke-width="2"/>
  <circle cx="360" cy="352" r="210" fill="#14B8A6" fill-opacity="0.08"/>
  <circle cx="360" cy="352" r="150" fill="#14B8A6" fill-opacity="0.08"/>
  <rect x="248" y="236" width="224" height="314" rx="38" fill="#0F172A"/>
  <path d="M294 236H426L414 188H306L294 236Z" fill="#1E293B"/>
  <rect x="286" y="188" width="148" height="24" rx="12" fill="#14B8A6"/>
  <rect x="284" y="286" width="152" height="196" rx="22" fill="#164E63"/>
  <rect x="312" y="326" width="96" height="12" rx="6" fill="#67E8F9"/>
  <rect x="312" y="360" width="96" height="86" rx="14" fill="#22C55E" fill-opacity="0.22"/>
  <path d="M324 446H396" stroke="#22C55E" stroke-width="10" stroke-linecap="round"/>
  <path d="M272 590H448" stroke="#0F172A" stroke-width="18" stroke-linecap="round"/>
  <circle cx="258" cy="594" r="28" fill="#0F172A"/>
  <circle cx="462" cy="594" r="28" fill="#0F172A"/>
  <circle cx="258" cy="594" r="10" fill="#67E8F9"/>
  <circle cx="462" cy="594" r="10" fill="#67E8F9"/>
  <path d="M220 318C190 328 174 348 174 378C174 408 190 428 220 438" stroke="#14B8A6" stroke-width="8" stroke-linecap="round"/>
  <path d="M500 318C530 328 546 348 546 378C546 408 530 428 500 438" stroke="#14B8A6" stroke-width="8" stroke-linecap="round"/>
  <path d="M198 350C188 356 182 366 182 378C182 390 188 400 198 406" stroke="#67E8F9" stroke-width="5" stroke-linecap="round"/>
  <path d="M522 350C532 356 538 366 538 378C538 390 532 400 522 406" stroke="#67E8F9" stroke-width="5" stroke-linecap="round"/>
  <rect x="132" y="700" width="456" height="34" rx="17" fill="#CCFBF1"/>
  <text x="132" y="812" fill="#0F172A" font-family="Archivo, Arial, sans-serif" font-size="82" font-weight="800" letter-spacing="-4">SMARTBIN</text>
  <text x="136" y="858" fill="#0F766E" font-family="Space Grotesk, Arial, sans-serif" font-size="24" font-weight="600">ESP32 / BLE / ultrasonic fill alerts</text>
  <text x="136" y="892" fill="#64748B" font-family="Space Grotesk, Arial, sans-serif" font-size="20" font-weight="500">IoT waste monitoring for cleaner communities</text>
</svg>
